# xmcd
#
# Track frame offsets:
# 150
# 18770
# 33210
# 48879
# 74175
# 85251
# 101810
# 116307
# 142800
# 157371
# 173207
# 187698
# 204962
# 217516
# 240466
# 264443
# 289127
#
# Disc length: 4061 seconds
#
#
# Revision: 0
# Processed by: cddbd v1.5.2PL0 Copyright (c) Steve Scherf et al.
# Submitted via: Nero 7, 2, 0, 3 
#
DISCID=df0fdb11
DTITLE=BORDER LINE BLUES BAND - All That Blues
DYEAR=2007
DGENRE=Blues
TTITLE0=Quiero Jugar Contigo (Al Teto)
TTITLE1=Qui Té "Duros" Fuma "Puros"
TTITLE2=Tobacco Road
TTITLE3=Com El Whisky Fon El Gel
TTITLE4=L'Hotel Dels Cors Trencats
TTITLE5=Polk Salad Annie
TTITLE6=I Wanna Play The Blues
TTITLE7=Memphis Train
TTITLE8=La Parada Del Blues
TTITLE9=Baby Lee
TTITLE10=Bella Muchacha
TTITLE11=Congo Square
TTITLE12=Psyco Killer
TTITLE13=Rock ME Baby
TTITLE14=Sweet Home Chicago
TTITLE15=Ya Funciona Mi Magia
TTITLE16=Subo Al Tren
EXTD=
EXTT0=
EXTT1=
EXTT2=
EXTT3=
EXTT4=
EXTT5=
EXTT6=
EXTT7=
EXTT8=
EXTT9=
EXTT10=
EXTT11=
EXTT12=
EXTT13=
EXTT14=
EXTT15=
EXTT16=
PLAYORDER=
